<svg width="326" height="325" viewBox="0 0 326 325" fill="none" xmlns="http://www.w3.org/2000/svg">
<g style="mix-blend-mode:soft-light">
<path d="M143.198 26.0369H105.304C104.974 25.2197 103.573 21.1924 105.711 17.0514H109.464C114.166 17.0514 117.982 13.2346 117.982 8.52665C117.982 3.8187 114.166 0 109.464 0H44.0558C39.3501 0 35.5367 3.8168 35.5367 8.52476C35.5367 13.2327 39.3501 17.0495 44.0558 17.0495H67.808L66.3777 17.0666C66.3777 17.0666 69.3728 21.1886 66.2621 26.0369H61.1472C56.8204 26.0369 53.3119 29.5484 53.3119 33.8772C53.3119 38.2059 56.8185 41.7175 61.1472 41.7175H62.5131C64.4757 44.8137 63.7748 47.7583 63.1212 49.3264H25.6043C20.7924 49.3264 16.89 53.2323 16.89 58.0483C16.89 62.8644 20.7924 66.7703 25.6043 66.7703H128.611C133.425 66.7703 137.327 62.8644 137.327 58.0483C137.327 53.2323 133.425 49.3264 128.611 49.3264H121.7C119.535 45.8926 121.403 42.5593 121.948 41.7175H143.2C147.527 41.7175 151.033 38.2059 151.033 33.8772C151.033 29.5484 147.527 26.0369 143.2 26.0369H143.198Z" fill="white"/>
</g>
<g style="mix-blend-mode:soft-light">
<path d="M307.834 205.485H296.354C287.918 199.181 292.679 190.201 293.842 188.278H296.585C303.617 188.278 309.317 182.573 309.317 175.535C309.317 168.497 303.617 162.789 296.585 162.789H283.635C275.966 156.056 280.812 145.84 281.32 144.826H307.917C315.565 144.826 321.764 138.622 321.764 130.968C321.764 123.313 315.565 117.109 307.917 117.109H201.601C193.953 117.109 187.753 123.315 187.753 130.968C187.753 138.62 193.953 144.826 201.601 144.826H214.763C217.91 154.703 212.534 161.108 210.87 162.789H163.209C156.177 162.789 150.476 168.497 150.476 175.535C150.476 182.573 156.179 188.278 163.209 188.278H207.731C211.266 197.237 205.704 203.293 203.141 205.485H202.416C195.484 205.485 189.867 211.109 189.867 218.045C189.867 224.981 195.484 230.606 202.416 230.606H307.832C314.764 230.606 320.383 224.983 320.383 218.045C320.383 211.107 314.764 205.485 307.832 205.485H307.834Z" fill="white"/>
</g>
<g style="mix-blend-mode:multiply">
<path d="M298.455 297.178C298.455 312.494 237.388 324.911 162.057 324.911C86.7256 324.911 25.6592 312.494 25.6592 297.178C25.6592 281.861 86.7275 269.442 162.057 269.442C237.386 269.442 298.455 281.859 298.455 297.178Z" fill="#FFDA9E"/>
</g>
<path d="M26.0021 74.9481C59.7624 90.3328 45.0883 152.333 59.5938 134.231C80.1444 108.586 95.7563 130.302 90.0541 160.641C84.3481 190.982 79.9758 215.821 111.245 207.306C142.512 198.79 118.027 250.811 110.957 262.176C103.987 273.38 84.3519 288.518 60.9029 278.841C48.5399 273.738 -1.01412 247 29.1203 235.07C59.2547 223.142 40.8865 205.872 18.163 184.998C-4.56046 164.122 -9.11842 139.815 22.8744 147.245C45.8006 152.568 -1.74915 111.398 15.7685 78.6701C17.2764 75.8487 19.796 72.4282 19.796 72.4282C19.796 72.4282 22.5277 73.363 26.0021 74.9462V74.9481Z" fill="#B6DEE9"/>
<path d="M89.2509 278.886C89.2509 278.886 57.904 209.571 28.9195 97.3616" stroke="#2F2B6F" stroke-width="9.98" stroke-linecap="round" stroke-linejoin="round"/>
<path d="M305.136 83.8179C279.541 72.5495 250.473 97.5038 246.737 128.323C242.213 165.662 228.411 183.766 206.089 203.667C183.771 223.566 188.816 264.459 222.148 279.129C250.418 291.573 289.28 269.252 288.85 239.338C288.416 209.423 289.729 178.58 310.71 156.104C334.939 130.152 328.341 94.0302 305.134 83.8179H305.136Z" fill="#B6DEE9"/>
<path d="M218.654 278.325C218.654 278.325 264.602 203.944 295.067 111.959" stroke="#2F2B6F" stroke-width="9.98" stroke-linecap="round" stroke-linejoin="round"/>
<path d="M223.066 92.2839C223.102 91.3245 229.17 92.629 234.632 86.9578C242.189 79.1024 252.091 89.4 239.995 95.7594C231.669 100.136 222.983 94.7355 223.066 92.2858V92.2839Z" fill="#F26868"/>
<path d="M222.979 89.5213C222.786 88.579 217.02 90.8884 210.683 86.2146C201.912 79.749 193.883 91.5672 206.879 95.7973C215.824 98.7078 223.476 91.9199 222.979 89.5213Z" fill="#F26868"/>
<path d="M218.734 60.2725C218.586 59.3206 224.796 59.478 229.112 52.8911C235.089 43.7728 246.724 52.0568 236.011 60.5455C228.64 66.3911 219.103 62.6957 218.734 60.2725Z" fill="#F26868"/>
<path d="M218.056 58.5262C218.107 57.5649 211.946 58.3498 206.987 52.235C200.119 43.769 189.38 53.1887 200.896 60.5493C208.822 65.6175 217.936 60.974 218.056 58.5243V58.5262Z" fill="#F26868"/>
<path d="M220.693 76.1654C220.708 73.7517 230.458 77.595 234.874 68.4142C242.376 52.8038 255.88 70.9455 240.541 79.7395C231.606 84.8589 220.672 79.3375 220.693 76.1654Z" fill="#F26868"/>
<path d="M221.161 70.8222C220.467 68.5109 212.189 74.9481 205.371 67.3846C193.781 54.5236 185.932 75.735 203.118 79.8475C213.13 82.2442 222.074 73.8597 221.159 70.8222H221.161Z" fill="#F26868"/>
<path d="M225.423 142.376C225.544 141.421 231.468 143.273 237.422 138.123C245.665 130.99 254.59 142.145 241.967 147.376C233.275 150.977 225.114 144.809 225.425 142.376H225.423Z" fill="#F26868"/>
<path d="M225.588 139.619C225.48 138.662 219.53 140.437 213.644 135.209C205.496 127.972 196.427 139.011 208.982 144.403C217.628 148.116 225.865 142.054 225.588 139.619Z" fill="#F26868"/>
<path d="M224.018 110.101C223.959 109.14 230.125 109.862 235.024 103.694C241.802 95.1565 252.638 104.464 241.198 111.946C233.325 117.096 224.165 112.549 224.018 110.101Z" fill="#F26868"/>
<path d="M223.5 108.302C223.637 107.35 217.431 107.572 213.047 101.031C206.977 91.9749 195.429 100.378 206.227 108.757C213.661 114.527 223.157 110.731 223.5 108.302Z" fill="#F26868"/>
<path d="M224.521 126.11C224.756 123.708 234.118 128.423 239.349 119.68C248.238 104.819 260.036 124.113 243.968 131.474C234.605 135.761 224.211 129.267 224.523 126.11H224.521Z" fill="#F26868"/>
<path d="M225.476 120.831C224.995 118.467 216.167 124.125 210.067 115.972C199.689 102.109 189.945 122.521 206.689 128.179C216.442 131.476 226.109 123.939 225.476 120.831Z" fill="#F26868"/>
<path d="M216.675 191.53C217.01 190.626 222.362 193.773 229.328 190.101C238.968 185.019 245.138 197.907 231.662 200.142C222.383 201.682 215.826 193.826 216.675 191.528V191.53Z" fill="#F26868"/>
<path d="M217.014 189.803C217.048 188.838 210.902 189.727 205.842 183.694C198.835 175.341 188.253 184.938 199.888 192.108C207.898 197.046 216.934 192.251 217.014 189.803Z" fill="#F26868"/>
<path d="M223.095 161.144C223.176 160.182 229.17 161.8 234.918 156.413C242.869 148.959 252.229 159.748 239.824 165.478C231.283 169.424 222.883 163.586 223.095 161.144Z" fill="#F26868"/>
<path d="M223.356 157.473C223.483 156.517 217.281 156.788 212.846 150.281C206.708 141.271 195.222 149.763 206.087 158.059C213.566 163.77 223.032 159.904 223.358 157.473H223.356Z" fill="#F26868"/>
<path d="M220.835 175.935C221.42 173.593 229.994 179.627 236.441 171.743C247.402 158.339 256.26 179.151 239.287 184.084C229.401 186.957 220.071 179.014 220.835 175.935Z" fill="#F26868"/>
<path d="M221.212 171.475C221.081 169.065 211.522 173.373 206.674 164.414C198.432 149.185 185.817 167.952 201.557 175.997C210.724 180.683 221.384 174.642 221.212 171.475Z" fill="#F26868"/>
<path d="M197.772 240.371C198.145 239.482 203.361 242.853 210.472 239.48C220.318 234.812 225.942 247.948 212.378 249.613C203.044 250.758 196.827 242.633 197.772 240.371Z" fill="#F26868"/>
<path d="M198.183 238.659C198.257 237.698 192.08 238.323 187.281 232.085C180.634 223.443 169.655 232.582 180.976 240.238C188.77 245.51 197.998 241.101 198.183 238.659Z" fill="#F26868"/>
<path d="M211.007 210.622C211.13 209.666 217.05 211.536 223.015 206.397C231.277 199.287 240.173 210.464 227.532 215.663C218.834 219.241 210.688 213.053 211.005 210.622H211.007Z" fill="#F26868"/>
<path d="M212.274 206.062C212.445 205.114 206.235 205.119 202.08 198.432C196.325 189.17 184.492 197.169 194.997 205.918C202.228 211.941 211.85 208.479 212.274 206.062Z" fill="#F26868"/>
<path d="M205.28 223.308C206.299 221.12 213.568 228.678 221.399 222.169C234.711 211.102 239.444 233.221 221.845 234.827C211.592 235.762 203.944 226.185 205.282 223.308H205.28Z" fill="#F26868"/>
<path d="M206.792 219.854C206.759 217.442 197.032 221.34 192.566 212.184C184.976 196.619 171.576 214.837 186.963 223.54C195.923 228.612 206.83 223.026 206.792 219.852V219.854Z" fill="#F26868"/>
<path d="M185.156 257.123C185.156 257.123 248.277 188.445 216.072 51.2471" stroke="#2F2B6F" stroke-width="9.98" stroke-linecap="round" stroke-linejoin="round"/>
<path d="M87.5251 100.725C87.4436 99.7677 81.4459 101.377 75.7096 95.985C67.7663 88.5202 58.3909 99.3032 70.7917 105.044C79.3279 108.998 87.7334 103.169 87.5251 100.725Z" fill="#F26868"/>
<path d="M87.474 97.9626C87.6198 97.0108 93.4944 99.0301 99.5887 94.0434C108.025 87.1455 116.635 98.5447 103.87 103.421C95.0819 106.777 87.0989 100.384 87.474 97.9607V97.9626Z" fill="#F26868"/>
<path d="M90.2473 68.5355C90.3458 67.5761 84.1549 68.0464 79.5117 61.6831C73.0877 52.8759 61.8785 61.7343 73.0025 69.677C80.6597 75.1434 90.0011 70.9739 90.2473 68.5355Z" fill="#F26868"/>
<path d="M90.8384 66.7589C90.7418 65.7995 96.9308 66.2754 101.582 59.9198C108.013 51.1201 119.211 59.988 108.078 67.9174C100.415 73.3781 91.0809 69.1973 90.8384 66.7589Z" fill="#F26868"/>
<path d="M89.0898 84.5062C88.9534 82.0963 79.4075 86.425 74.5369 77.4794C66.2621 62.2671 53.6851 81.0629 69.4447 89.0739C78.6232 93.7401 89.2717 87.6746 89.0898 84.5062Z" fill="#F26868"/>
<path d="M88.3529 79.1953C88.9307 76.8517 97.52 82.8661 103.951 74.9689C114.882 61.5409 123.784 82.3333 106.823 87.3029C96.9441 90.1982 87.5932 82.2745 88.3529 79.1953Z" fill="#F26868"/>
<path d="M87.6861 150.873C87.5118 149.925 81.6884 152.073 75.4842 147.226C66.8968 140.516 58.5443 152.105 71.4112 156.695C80.2733 159.856 88.1161 153.286 87.6861 150.873Z" fill="#F26868"/>
<path d="M87.383 148.125C87.4398 147.164 93.4717 148.639 99.0905 143.121C106.865 135.484 116.474 146.055 104.207 152.071C95.7582 156.214 87.2277 150.573 87.383 148.125Z" fill="#F26868"/>
<path d="M87.4701 118.569C87.4796 117.606 81.3587 118.636 76.1567 112.724C68.9579 104.536 58.603 114.377 70.4014 121.277C78.5228 126.025 87.4436 121.023 87.4701 118.571V118.569Z" fill="#F26868"/>
<path d="M87.8944 116.745C87.7088 115.801 93.9187 115.71 97.9727 108.958C103.578 99.6103 115.534 107.422 105.17 116.332C98.0334 122.466 88.3567 119.153 87.8926 116.745H87.8944Z" fill="#F26868"/>
<path d="M87.7676 134.582C87.4152 132.194 78.2974 137.374 72.6369 128.905C63.0171 114.508 52.2 134.369 68.6188 140.914C78.1856 144.726 88.2374 137.718 87.7695 134.582H87.7676Z" fill="#F26868"/>
<path d="M86.5513 129.356C86.915 126.969 96.0139 132.177 101.697 123.728C111.366 109.364 122.121 129.257 105.683 135.751C96.1048 139.534 86.0739 132.492 86.5513 129.356Z" fill="#F26868"/>
<path d="M98.882 199.524C98.5051 198.64 93.3144 202.051 86.1762 198.733C76.2912 194.143 70.7746 207.324 84.3481 208.881C93.6951 209.951 99.8482 201.778 98.882 199.524Z" fill="#F26868"/>
<path d="M98.4596 197.816C98.3762 196.854 104.561 197.435 109.313 191.155C115.894 182.463 126.942 191.515 115.68 199.26C107.93 204.592 98.6661 200.256 98.4615 197.816H98.4596Z" fill="#F26868"/>
<path d="M90.9482 169.5C90.8175 168.546 84.9126 170.461 78.9016 165.37C70.589 158.324 61.7799 169.572 74.4574 174.67C83.1849 178.18 91.2797 171.929 90.9482 169.5Z" fill="#F26868"/>
<path d="M90.5049 165.846C90.3288 164.898 96.5387 164.858 100.64 158.136C106.318 148.831 118.215 156.733 107.782 165.565C100.6 171.646 90.9482 168.26 90.5049 165.846Z" fill="#F26868"/>
<path d="M93.9471 184.16C93.2481 181.851 84.9828 188.307 78.1496 180.757C66.5312 167.92 58.73 189.151 75.9275 193.225C85.9432 195.599 94.864 187.196 93.9452 184.16H93.9471Z" fill="#F26868"/>
<path d="M93.3485 179.723C93.358 177.311 103.122 181.132 107.513 171.942C114.983 156.318 128.524 174.429 113.206 183.252C104.289 188.392 93.3334 182.894 93.3485 179.723Z" fill="#F26868"/>
<path d="M120.211 247.354C119.796 246.486 114.752 250.115 107.483 247.104C97.4158 242.937 92.4562 256.338 106.088 257.318C115.47 257.995 121.266 249.565 120.211 247.354Z" fill="#F26868"/>
<path d="M119.713 245.665C119.594 244.709 125.792 245.024 130.274 238.553C136.481 229.586 147.902 238.164 136.979 246.38C129.458 252.036 120.022 248.1 119.713 245.665Z" fill="#F26868"/>
<path d="M105.505 218.308C105.331 217.36 99.511 219.524 93.2955 214.693C84.6873 208.005 76.3613 219.617 89.249 224.175C98.1149 227.311 105.939 220.72 105.505 218.308Z" fill="#F26868"/>
<path d="M104.006 213.819C103.791 212.88 109.991 212.575 113.806 205.686C119.09 196.147 131.307 203.542 121.257 212.806C114.337 219.186 104.552 216.211 104.005 213.82L104.006 213.819Z" fill="#F26868"/>
<path d="M111.857 230.692C110.73 228.559 103.849 236.471 95.7032 230.364C81.8513 219.981 78.2349 242.309 95.8927 243.029C106.179 243.448 113.338 233.498 111.859 230.694L111.857 230.692Z" fill="#F26868"/>
<path d="M110.173 227.319C110.086 224.909 119.997 228.312 123.994 218.946C130.797 203.019 145.091 220.54 130.163 230.005C121.467 235.519 110.292 230.491 110.171 227.319H110.173Z" fill="#F26868"/>
<path d="M133.65 263.452C133.65 263.452 67.1677 198.03 92.4524 59.387" stroke="#2F2B6F" stroke-width="9.98" stroke-linecap="round" stroke-linejoin="round"/>
<path d="M150.334 71.5522C126.296 71.5522 112.05 103.806 119.762 131.544C129.115 165.156 124.512 185.815 113.829 211.217C103.143 236.615 121.255 269.66 152.558 269.66C179.107 269.66 201.974 235.97 191.292 210.572C180.609 185.171 170.978 158.322 179.717 131.222C189.806 99.9346 172.126 71.5522 150.332 71.5522H150.334Z" fill="#D786B8"/>
<path d="M149.531 270.289C149.531 270.289 159.971 189.446 152.14 99.3866" stroke="#2F2B6F" stroke-width="9.98" stroke-linecap="round" stroke-linejoin="round"/>
<path d="M207.655 126.427C190.807 121.667 179.486 144.373 179.224 166.003C178.908 192.213 171.366 206.466 158.687 222.757C146.007 239.05 146.778 264.243 168.716 270.443C187.321 275.699 206.973 254.897 204.676 234.378C202.383 213.853 201.048 191.959 212.714 174.048C226.179 153.374 222.926 130.744 207.655 126.428V126.427Z" fill="#6F6CB2"/>
<path d="M166.467 270.295C166.467 270.295 190.308 213.777 203.228 146.957" stroke="#2F2B6F" stroke-width="9.98" stroke-linecap="round" stroke-linejoin="round"/>
<path d="M98.9673 130.317C117.343 125.128 134.628 144.752 134.237 165.939C133.764 191.61 141.381 205.161 154.587 220.728C167.793 236.296 160.513 263.46 136.594 270.221C116.305 275.953 92.1455 257.18 95.2656 237C98.3876 216.816 100.417 195.842 88.3605 178.658C74.4385 158.819 82.3135 135.025 98.9673 130.317Z" fill="#6F6CB2"/>
<path d="M139.032 270.007C139.032 270.007 115.005 215.37 103.112 150.298" stroke="#2F2B6F" stroke-width="9.98" stroke-linecap="round" stroke-linejoin="round"/>
<path d="M149.025 294.538C183.813 294.538 212.014 268.828 212.014 237.112C212.014 205.396 183.813 179.685 149.025 179.685C114.237 179.685 86.036 205.396 86.036 237.112C86.036 268.828 114.237 294.538 149.025 294.538Z" fill="#43B5D0"/>
<path d="M210.594 291.421L216.093 218.198C216.093 212.036 210.092 207.139 203.933 207.139C197.774 207.139 193.057 212.944 193.057 219.109L197.837 291.685L210.594 291.421Z" fill="#FEC59B"/>
<path d="M235.119 292.479C235.119 292.479 240.58 240.974 241.147 219.226C241.41 209.13 234.657 205.707 228.498 205.707C222.339 205.707 218.185 213.035 218.185 219.2L222.559 291.952L235.117 292.481L235.119 292.479Z" fill="#FEC59B"/>
<path d="M240.145 180.884C239.876 167.717 230.676 164.689 218.128 160.326C210.438 157.651 184.032 147.697 150.272 145.749C149.762 145.719 137.263 161.1 137.263 168.808V169.581C137.263 177.283 143.507 183.529 151.198 183.529H210.122C215.981 194.589 216.805 207.965 218.262 222.131C219.202 231.268 240.277 233.081 241.082 217.495C241.516 209.111 240.258 186.598 240.145 180.884Z" fill="#E5A393"/>
<path d="M216.014 220.117C217.639 197.939 216.715 172.219 205.666 167.837C190.903 161.982 174.412 153.918 146.492 147.82L129.797 146.828C129.797 146.828 129.522 149.877 124.718 164.576C120.558 177.306 129.653 185.868 141.3 185.597C152.712 185.33 177.656 180.834 186.921 187.67C193.959 192.861 190.617 228.665 195.982 231.807C202.425 235.582 214.911 235.233 216.017 220.119L216.014 220.117Z" fill="#E5A393"/>
<path d="M215.75 222.021H242.586C242.53 211.807 241.694 184.575 241.599 179.86C241.332 166.692 232.131 163.665 219.585 159.303C211.895 156.627 184.032 147.697 150.272 145.749C149.762 145.719 137.263 161.1 137.263 168.808V169.581C137.263 177.283 143.507 183.529 151.198 183.529H210.122C214.557 191.898 214.625 211.657 215.75 222.021Z" fill="#1E1651"/>
<path d="M185.873 188.017C189.564 190.739 190.032 209.338 190.767 219.772H216.608C217.398 199.841 215.381 171.69 205.666 167.837C190.903 161.982 174.412 153.918 146.492 147.82L129.797 146.828C129.797 146.828 128.677 150.294 123.873 164.993C119.713 177.723 129.653 185.868 141.298 185.595C152.71 185.328 176.61 181.179 185.873 188.015V188.017Z" fill="#2F2B6F"/>
<path d="M240.834 293.765C246.12 296.626 257.145 299.047 258.502 304.934C259.858 310.82 243.157 311.186 224.033 299.538C222.39 298.537 220.483 295.422 222.519 290.668C222.519 290.668 231.069 293.829 235.439 289.682C235.439 289.682 238.006 292.233 240.832 293.763L240.834 293.765Z" fill="#51589E"/>
<path d="M216.084 293.478C221.367 296.339 232.395 298.761 233.751 304.646C235.109 310.532 220.013 308.723 199.417 299.936C197.537 299.138 196.431 294.303 197.786 290.545C197.786 290.545 206.428 293.008 210.645 289.652C210.645 289.652 213.257 291.948 216.084 293.478Z" fill="#6F6CB2"/>
<path d="M157.552 11.5092C157.552 11.5092 132.042 5.91195 130.193 56.9846C129.056 88.3438 112.927 111.152 122.261 121.29C131.621 131.457 174.081 105.941 174.081 105.941C174.081 105.941 194.307 9.2187 157.552 11.5073V11.5092Z" fill="#451211"/>
<path d="M185.819 150.814C183.875 156.259 131.735 151.521 129.805 148.064C126.899 142.856 137.27 125.435 133.025 89.0131C131.474 75.6837 135.185 69.9746 137.543 67.2708C140.949 63.3592 151.833 63.272 151.833 63.272L162.614 63.3592C162.614 63.3592 165.668 63.4483 170.544 67.2443C172.955 69.1214 180.687 82.2953 181.105 94.8189C181.333 101.563 194.377 106.235 195.328 122.416C196.558 143.336 185.82 150.814 185.82 150.814H185.819Z" fill="#F26868"/>
<path d="M174.465 33.2894C173.562 47.2445 171.357 52.0814 166.833 55.9949C164.563 57.9573 159.871 57.9573 156.974 57.9573C146.972 57.9573 141.018 49.7928 139.451 33.1756C138.303 20.9971 146.106 12.7245 157.224 12.7245C168.343 12.7245 175.38 19.0423 174.465 33.2894Z" fill="#FEC59B"/>
<path d="M162.233 55.7275H152.056C152.522 57.4302 153.07 60.8261 151.03 63.3118C148.705 66.1408 165.187 66.4138 163.082 63.3877C161.102 60.5436 161.71 57.3487 162.233 55.7294V55.7275Z" fill="#FEC59B"/>
<path d="M163.919 24.0214C163.919 24.0214 156.641 37.5916 139.032 39.719C139.032 39.719 134.383 12.3567 155.98 11.6912C155.98 11.6912 176.989 10.8474 174.92 33.443C174.92 33.443 168.452 34.2867 163.917 24.0214H163.919Z" fill="#451211"/>
<path d="M142.952 41.2188C142.952 41.2188 144.984 52.9118 150.541 56.5732C150.541 56.5732 142.952 55.4659 140.425 41.5638L142.952 41.2188Z" fill="#451211"/>
<path d="M143.982 41.5923C143.982 43.9662 146.989 47.0776 143.566 47.3602C141.647 47.5194 139.754 44.9199 139.754 42.546C139.754 40.1721 140.317 37.292 143.418 37.292C145.348 37.292 143.982 39.2165 143.982 41.5923Z" fill="#FEC59B"/>
<path d="M143.958 112.972C143.958 117.458 141.857 121.013 137.378 121.013C131.331 121.013 129.054 116.078 129.054 111.594C129.054 111.594 130.238 88.9733 131.195 81.4895C132.483 71.4384 136.208 66.9845 140.773 65.0714C143.342 63.9944 146.813 65.6118 145.519 70.278C143.603 77.1722 144.295 80.5813 143.376 88.9676C142.41 97.792 143.958 112.97 143.958 112.97V112.972Z" fill="#FEC59B"/>
<path d="M188.802 103.207C182.249 104.4 147.315 104.79 139.64 106.389C132.504 107.875 128.535 110.645 129.715 116.025C130.773 120.862 134.641 122.833 142.51 120.537L190.799 110.293L188.802 103.207Z" fill="#FEC59B"/>
<path d="M190.5 100.867C190.5 100.867 195.044 96.5425 196.658 98.1257C198.253 99.6919 194.756 102.104 194.756 102.104C194.756 102.104 204.727 98.5447 205.232 104.1C205.702 109.275 202.516 110.348 191.996 110.731C188.931 110.843 183.684 105.761 190.502 100.867H190.5Z" fill="#FEC59B"/>
<path d="M144.098 45.6745C143.999 45.6651 143.818 45.7162 143.763 45.9172C143.672 46.232 143.802 46.3856 143.85 46.4083C144.299 46.6264 144.708 47.1535 144.74 47.8228C144.778 48.6097 144.335 49.1406 143.611 49.1747C143.378 49.1861 142.207 49.1785 142.145 47.9119C142.132 47.6085 142.196 47.3165 142.317 47.0587C142.219 47.0264 141.736 46.7913 141.628 46.6851C141.448 47.0719 141.347 47.5175 141.37 47.9498C141.442 49.406 142.565 50.0033 143.647 49.9502C144.805 49.8933 145.574 49.0059 145.513 47.7868C145.466 46.7837 144.816 45.7504 144.096 45.6745H144.098Z" fill="#FEC65D"/>
</svg>
